<svg xmlns="http://www.w3.org/2000/svg" viewBox="0 0 109.91 110"><defs><style>.cls-1{fill:#2424bc;}.cls-2{fill:#191753;}</style></defs><g id="Layer_2" data-name="Layer 2"><g id="Layer_1-2" data-name="Layer 1"><path class="cls-1" d="M109.26,47.43A52.82,52.82,0,0,1,94.4,93l-4.62-5.69A46.77,46.77,0,0,0,102.2,51.45,46,46,0,0,0,91.27,24.54,47.66,47.66,0,0,0,31.66,13.65L27.1,7.71C41.6-.45,57-2.47,72.84,3.27,93.5,10.76,105.85,25.76,109.26,47.43Z"/><path class="cls-1" d="M89.29,39.89a35.71,35.71,0,0,1,3.21,17.5A36.5,36.5,0,0,1,84.75,77.9l-5-5.7c5.65-8.76,6.65-18.12,3.23-28.13A13.54,13.54,0,0,0,89.29,39.89Z"/><path class="cls-2" d="M85.46,91.42a8.14,8.14,0,0,1,4.21,9.26,8.2,8.2,0,0,1-15.65.95,8.09,8.09,0,0,1,2.13-8.95,1.31,1.31,0,0,0,.44-1.7,23.09,23.09,0,0,0-9.44-11.93l-1.05-.67L73,73.61a29.29,29.29,0,0,1,5.91,5.63,30.41,30.41,0,0,1,5.6,10.94A1.76,1.76,0,0,0,85.46,91.42Z"/><path class="cls-1" d="M79.11,23.08a8.08,8.08,0,1,1-8.32,8A8.14,8.14,0,0,1,79.11,23.08Z"/><path class="cls-2" d="M75.18,52.45A20.41,20.41,0,0,1,54.74,75.51a23,23,0,0,0-21.5,15.58,1.22,1.22,0,0,0,.42,1.53,8.15,8.15,0,0,1,1.94,9.59,8.31,8.31,0,0,1-8.36,4.66,8.25,8.25,0,0,1-2.8-15.52,2,2,0,0,0,.88-1c4-12.55,12.45-20,25.44-22.28,2-.35,4.07-.22,6.08-.48a12.62,12.62,0,1,0-11.45-4.2l.17.25-7.52,3a15.81,15.81,0,0,1-2.5-5.11,20.42,20.42,0,1,1,39.64-9Z"/><path class="cls-1" d="M68.25,100.65a14.14,14.14,0,0,0,3,6.87,55.19,55.19,0,0,1-32.39.1c1-2.29,2-4.53,3.05-6.88A49,49,0,0,0,68.25,100.65Z"/><path class="cls-1" d="M70.07,20.78A13.35,13.35,0,0,0,66,26.85c-14.83-4.28-27.31-1.14-36.25,11.8-6.74,9.76-6.64,23.14.33,33.54l-4.88,5.63C16,66.82,13.87,48,24.13,33.56,36.37,16.35,57.12,14.49,70.07,20.78Z"/><path class="cls-1" d="M18.87,10.82a8.07,8.07,0,0,1,7.94,8.49A8.21,8.21,0,0,1,18.33,27a8.25,8.25,0,0,1-7.66-8.2A8.15,8.15,0,0,1,18.87,10.82Z"/><path class="cls-1" d="M20.09,87.58c-.8.83-1.7,1.66-2.47,2.6s-1.35,2-2.12,3.08A54.59,54.59,0,0,1,7.8,27.09c1.67,1.83,3.41,3.55,5.71,4.34C3.77,51.67,5.74,70.33,20.09,87.58Z"/></g></g></svg>